<svg xmlns="http://www.w3.org/2000/svg" viewBox="0 0 128 128" fill="none">
  <!-- GOGGA - Friendly SA Bug Icon -->

  <!-- Shadow -->
  <ellipse cx="64" cy="115" rx="40" ry="8" fill="#000000" opacity="0.1"/>

  <!-- Bug Body (Main) - VCB Black -->
  <ellipse cx="64" cy="70" rx="32" ry="40" fill="#000000"/>

  <!-- Bug Head - VCB Black -->
  <circle cx="64" cy="35" r="22" fill="#000000"/>

  <!-- Antennae (Left) -->
  <path d="M 52 25 Q 40 15, 35 8" stroke="#000000" stroke-width="3" stroke-linecap="round" fill="none"/>
  <circle cx="35" cy="8" r="3.5" fill="#FF6B35"/>

  <!-- Antennae (Right) -->
  <path d="M 76 25 Q 88 15, 93 8" stroke="#000000" stroke-width="3" stroke-linecap="round" fill="none"/>
  <circle cx="93" cy="8" r="3.5" fill="#FF6B35"/>

  <!-- Friendly Eyes (Large and welcoming) -->
  <circle cx="54" cy="35" r="6" fill="#FFFFFF"/>
  <circle cx="74" cy="35" r="6" fill="#FFFFFF"/>
  <circle cx="54" cy="37" r="3.5" fill="#000000"/>
  <circle cx="74" cy="37" r="3.5" fill="#000000"/>

  <!-- Cute smile -->
  <path d="M 54 44 Q 64 50, 74 44" stroke="#FFFFFF" stroke-width="2.5" stroke-linecap="round" fill="none"/>

  <!-- Body segments (cute stripes) - VCB Orange -->
  <ellipse cx="64" cy="60" rx="28" ry="3" fill="#FF6B35" opacity="0.8"/>
  <ellipse cx="64" cy="75" rx="26" ry="3" fill="#FF6B35" opacity="0.8"/>
  <ellipse cx="64" cy="90" rx="22" ry="3" fill="#FF6B35" opacity="0.8"/>

  <!-- Left legs -->
  <path d="M 40 60 Q 28 62, 20 68" stroke="#000000" stroke-width="3" stroke-linecap="round" fill="none"/>
  <path d="M 38 75 Q 24 78, 16 85" stroke="#000000" stroke-width="3" stroke-linecap="round" fill="none"/>
  <path d="M 40 90 Q 28 95, 22 102" stroke="#000000" stroke-width="3" stroke-linecap="round" fill="none"/>

  <!-- Right legs -->
  <path d="M 88 60 Q 100 62, 108 68" stroke="#000000" stroke-width="3" stroke-linecap="round" fill="none"/>
  <path d="M 90 75 Q 104 78, 112 85" stroke="#000000" stroke-width="3" stroke-linecap="round" fill="none"/>
  <path d="M 88 90 Q 100 95, 106 102" stroke="#000000" stroke-width="3" stroke-linecap="round" fill="none"/>

  <!-- Cute heart accent (friendly vibe) - SA Flag colors hint -->
  <path d="M 64 52 L 60 56 L 64 60 L 68 56 Z" fill="#FF6B35"/>
</svg>
