<svg 
  viewBox="0 0 200 210" 
  xmlns="http://www.w3.org/2000/svg"
>
  <defs>
    <pattern id="sa-flag" patternUnits="userSpaceOnUse" x="50" y="120" width="100" height="66.67" viewBox="0 0 900 600" patternTransform="rotate(90 100 153.33)">
        <rect width="900" height="600" fill="#fff"/>
        <rect width="900" height="200" fill="#de3831"/>
        <rect y="400" width="900" height="200" fill="#002395"/>
        <path d="M0 200h900v200H0z" fill="#fff"/>
        <path d="M0 240h900v120H0z" fill="#007a4d"/>
        <path d="M0 0v600L300 300z" fill="#ffb612"/>
        <path d="M0 40v520L260 300z" fill="#000"/>
    </pattern>
  </defs>
  <style>
    .gogga-body {
      transform-origin: 100px 100px;
      animation: gogga-wobble 5s ease-in-out infinite;
    }
    @keyframes gogga-wobble {
      0%, 100% { transform: rotate(0deg); }
      25% { transform: rotate(-2deg); }
      75% { transform: rotate(2deg); }
    }
    .eye-blink {
      animation: gogga-blink 2.5s infinite;
    }
    @keyframes gogga-blink {
      0%, 90% { opacity: 0; }
      95% { opacity: 1; }
      100% { opacity: 0; }
    }
    @keyframes bulb-blink {
      0%, 100% { fill: #de3831; }
      25% { fill: #002395; }
      50% { fill: #ffb612; }
      75% { fill: #007a4d; }
    }
    .bulb-left {
      animation: bulb-blink 2s infinite;
    }
    .bulb-right {
      animation: bulb-blink 2s infinite;
      animation-delay: -0.7s;
    }
  </style>
  <g class="gogga-body">
    <ellipse cx="100" cy="145" rx="43.75" ry="62.5" fill="url(#sa-flag)" />
    <circle cx="100" cy="100" r="40" fill="#282828" />
    <g>
      <circle cx="85" cy="90" r="10" fill="white" />
      <circle cx="85" cy="92" r="4" fill="black" />
      <ellipse cx="85" cy="90" rx="10" ry="10" fill="#282828" class="eye-blink" />
      <circle cx="115" cy="90" r="10" fill="white" />
      <circle cx="115" cy="92" r="4" fill="black" />
      <ellipse cx="115" cy="90" rx="10" ry="10" fill="#282828" class="eye-blink" />
    </g>
    <g>
      <path d="M 77.5 112 C 85.5 126, 114.5 126, 122.5 112 Q 100 122 77.5 112 Z" fill="white" />
      <path d="M 100 112 V 122" stroke="#282828" stroke-width="1.5" stroke-linecap="round" />
      <path d="M 87.5 112 V 119" stroke="#282828" stroke-width="1" stroke-linecap="round" />
      <path d="M 112.5 112 V 119" stroke="#282828" stroke-width="1" stroke-linecap="round" />
    </g>
    <g fill="#ffb612" stroke="#282828" stroke-width="1.5" stroke-linejoin="round">
      <path d="M 100 140 L 80 130 L 80 150 Z" />
      <path d="M 100 140 L 120 130 L 120 150 Z" />
      <circle cx="100" cy="140" r="5" />
    </g>
    <g>
        <g stroke="#282828" stroke-width="5" stroke-linecap="round" fill="none">
            <path d="M 85 65 C 90 55, 70 50, 75 40 C 80 30, 60 25, 65 15" />
            <path d="M 115 65 C 110 55, 130 50, 125 40 C 120 30, 140 25, 135 15" />
        </g>
        <circle cx="65" cy="10" r="5" class="bulb-left" />
        <circle cx="135" cy="10" r="5" class="bulb-right" />
    </g>
    <g stroke="#282828" stroke-width="3" stroke-linecap="round">
        <path d="M 60 180 Q 40 185 30 195" />
        <path d="M 62.5 185 Q 42.5 190 32.5 200" />
        <path d="M 65 190 Q 45 195 35 205" />
        <path d="M 140 180 Q 160 185 170 195" />
        <path d="M 137.5 185 Q 157.5 190 167.5 200" />
        <path d="M 135 190 Q 155 195 165 205" />
    </g>
    <g stroke="#282828" stroke-width="3" stroke-linecap="round">
        <path d="M 60 155 Q 40 160 30 150" />
        <path d="M 140 155 Q 160 160 170 150" />
        <path d="M 61 162.5 Q 41 167.5 31 157.5" />
        <path d="M 139 162.5 Q 159 167.5 169 157.5" />
        <path d="M 62 170 Q 42 175 32 165" />
        <path d="M 138 170 Q 158 175 168 165" />
    </g>
  </g>
</svg>